<svg width="24" height="24" viewBox="0 0 24 24" fill="none" xmlns="http://www.w3.org/2000/svg">
<g clip-path="url(#clip0_102_22)">
<path fill-rule="evenodd" clip-rule="evenodd" d="M9.17871 1.40293C11.3625 0.884514 13.6375 0.884515 15.8213 1.40293C17.0782 0.607554 18.0474 0.23618 18.762 0.0775187C19.1553 -0.00979012 19.4702 -0.0323283 19.7105 -0.0257143C19.8304 -0.0224148 19.9306 -0.011888 20.0115 0.00101548C20.0519 0.00745898 20.0873 0.0144684 20.1178 0.0214068C20.1331 0.0248745 20.1471 0.02832 20.1598 0.0316619L20.178 0.0365843L20.1864 0.0389664L20.1905 0.040134L20.1924 0.0407116C20.1934 0.0409983 20.1944 0.0412847 19.91 1L20.8291 0.606052C21.3636 1.8531 21.4627 3.23746 21.1211 4.53862C22.0105 5.66888 22.4998 7.06996 22.5 8.51982V8.52C22.5 11.4663 21.5987 13.4423 20.1011 14.7016C19.0948 15.5478 17.8926 16.0053 16.7073 16.2666C16.7227 16.3058 16.7376 16.3452 16.7519 16.3849C16.9573 16.9554 17.0418 17.5622 17 18.1667V22C17 22.5523 16.5523 23 16 23C15.4477 23 15 22.5523 15 22V18.13C15 18.1038 15.001 18.0777 15.0031 18.0516C15.0295 17.7162 14.9842 17.3791 14.8702 17.0626C14.7562 16.7462 14.5762 16.4576 14.342 16.2161C14.0765 15.9421 13.9899 15.5409 14.1189 15.1819C14.2479 14.8228 14.57 14.5684 14.9492 14.5262C16.4631 14.3574 17.828 13.9999 18.8139 13.1709C19.7513 12.3827 20.5 11.0338 20.5 8.52018M19.203 2.02833C19.2005 2.02887 19.198 2.02943 19.1955 2.02998C18.7078 2.13826 17.8444 2.44756 16.5568 3.31064C16.3164 3.47183 16.0178 3.52091 15.7384 3.44518C13.6177 2.87043 11.3823 2.87043 9.2616 3.44518C8.98219 3.52091 8.68367 3.47183 8.44321 3.31064C7.15566 2.44756 6.29228 2.13826 5.80454 2.02998C5.80203 2.02943 5.79953 2.02887 5.79704 2.02833C5.60379 2.81668 5.64954 3.65036 5.9369 4.42036C6.07071 4.7789 5.98815 5.18237 5.72427 5.45954C4.93268 6.29098 4.4939 7.3967 4.5 8.54468L4.50003 8.55C4.50002 11.0405 5.24675 12.381 6.18609 13.1709C7.17559 14.0029 8.54447 14.369 10.0633 14.5576C10.4395 14.6044 10.757 14.8598 10.8831 15.2174C11.0092 15.5749 10.9223 15.973 10.6586 16.2454C10.4272 16.4845 10.2488 16.7696 10.1349 17.0822C10.021 17.3949 9.97421 17.7279 9.99755 18.0598C9.99919 18.0832 10 18.1066 10 18.13V18.9952C10 18.9982 10 19.0012 10 19.0042V22C10 22.5523 9.5523 23 9.00002 23C8.44773 23 8.00002 22.5523 8.00002 22V20.2543C7.19384 20.3777 6.48441 20.3565 5.85026 20.2081C4.88548 19.9823 4.19644 19.4856 3.66791 18.9571C3.40927 18.6985 3.18644 18.4295 2.9939 18.1883C2.92848 18.1064 2.86869 18.0305 2.8122 17.9588C2.69177 17.8058 2.58631 17.6719 2.47315 17.5391C2.28835 17.3222 2.14308 17.1837 2.01853 17.0959L1.6061 16.9191C1.12694 16.7138 0.885917 16.1748 1.05234 15.6808C1.21877 15.1867 1.7368 14.9034 2.24255 15.0299C2.50423 15.0953 2.7382 15.1963 2.94821 15.3184L8.01057 17.488C8.0452 17.1165 8.12735 16.75 8.25574 16.3976C8.26978 16.3591 8.28436 16.3207 8.29946 16.2827C7.11239 16.012 5.90702 15.5493 4.89894 14.7016C3.40372 13.4444 2.50055 11.4806 2.50002 8.5526M5.09002 1C4.80565 0.0412847 4.80662 0.0409983 4.80759 0.0407116L4.80956 0.040134L4.81359 0.0389664L4.82199 0.0365843L4.8402 0.0316619C4.85296 0.02832 4.86696 0.0248745 4.88221 0.0214068C4.91273 0.0144684 4.94816 0.00745898 4.98856 0.00101548C5.06947 -0.011888 5.16965 -0.0224148 5.28953 -0.0257143C5.52984 -0.0323283 5.84472 -0.00979012 6.23799 0.0775187C6.95267 0.236179 7.92183 0.607554 9.17871 1.40293M5.09002 1L4.80565 0.0412848C4.52063 0.125825 4.288 0.332799 4.17088 0.606052C3.63639 1.85309 3.53732 3.23745 3.87894 4.53861M19.203 2.02833C19.3962 2.81668 19.3505 3.65037 19.0631 4.42036C18.9293 4.7789 19.0119 5.18235 19.2758 5.45952C20.0614 6.2848 20.4998 7.38054 20.5 8.52" fill="#837E9F"/>
</g>
<defs>
<clipPath id="clip0_102_22">
<rect width="24" height="24" fill="white"/>
</clipPath>
</defs>
</svg>
