<svg width="24" height="24" viewBox="0 0 24 24" fill="none" xmlns="http://www.w3.org/2000/svg">
<g clip-path="url(#clip0_102_42)">
<path fill-rule="evenodd" clip-rule="evenodd" d="M14.5255 2.35019C15.5743 1.94989 16.7207 1.88134 17.8097 2.15383C18.6758 2.37052 19.4722 2.79456 20.1326 3.38511C20.9448 3.08659 21.7151 2.68258 22.4236 2.18284L23 3L23.9716 3.23662C23.629 4.64314 22.9424 5.93957 21.9769 7.01097C21.9917 7.17237 21.9994 7.33444 22 7.49669L22 7.5C22 13.5999 19.0631 18.075 14.8448 20.3202C10.6509 22.5525 5.29085 22.5278 0.514338 19.8742C0.109527 19.6493 -0.0879187 19.1759 0.0371299 18.73C0.162178 18.2841 0.577005 17.9824 1.03973 18.0008C2.72654 18.0679 4.39635 17.7325 5.91472 17.033C4.41157 16.1054 3.3294 15.0042 2.57704 13.8163C1.57341 12.2316 1.19454 10.5529 1.12601 9.04541C1.05769 7.54228 1.29646 6.1889 1.54746 5.21837C1.67356 4.73078 1.8044 4.3335 1.90526 4.05453C1.95575 3.91489 1.99889 3.80441 2.03042 3.72658C2.04619 3.68765 2.05908 3.65684 2.06854 3.63459L2.08011 3.60767L2.08306 3.60091C2.09011 3.58473 2.0976 3.56868 2.10555 3.55279L2.99998 4L3.81834 3.42529C4.73388 4.72897 5.95762 5.78599 7.38058 6.50221C8.51244 7.07191 9.74238 7.41192 10.9997 7.50641C10.9923 6.39675 11.322 5.31066 11.9456 4.39206C12.5761 3.46325 13.4767 2.7505 14.5255 2.35019ZM3.40463 6.04361C3.22094 6.84497 3.07425 7.86124 3.12395 8.95459C3.18043 10.1971 3.48906 11.5184 4.26667 12.7462C5.04027 13.9677 6.31602 15.1573 8.40612 16.0862C8.73792 16.2337 8.96372 16.5494 8.99602 16.9111C9.02831 17.2727 8.86204 17.6235 8.56161 17.8274C7.45067 18.5815 6.23418 19.1488 4.96008 19.5157C8.13025 20.3234 11.307 19.9376 13.9051 18.5548C17.4365 16.6752 19.9995 12.9008 20 7.50167C19.9992 7.28557 19.9783 7.07001 19.9378 6.85775C19.8751 6.52989 19.9801 6.19238 20.2178 5.95799C20.4406 5.73831 20.6469 5.50416 20.8357 5.2575C20.6092 5.34106 20.3799 5.41778 20.1483 5.48753C19.7717 5.60094 19.3635 5.48303 19.1054 5.18624C18.6376 4.64832 18.0159 4.26706 17.3243 4.09402C16.6327 3.92098 15.9047 3.96451 15.2387 4.21872C14.5726 4.47292 14.0007 4.92555 13.6003 5.51538C13.1999 6.1052 12.9903 6.80377 12.9999 7.5166L13.0001 7.53H13V8.53C13 9.07219 12.5679 9.51561 12.0259 9.52966C10.1037 9.57951 8.19897 9.15319 6.4814 8.28868C5.33583 7.71208 4.29723 6.95248 3.40463 6.04361Z" fill="#837E9F"/>
</g>
<defs>
<clipPath id="clip0_102_42">
<rect width="24" height="24" fill="white"/>
</clipPath>
</defs>
</svg>
